
        <svg xmlns="http://www.w3.org/2000/svg" xmlns:xlink="http://www.w3.org/1999/xlink" version="1.1" width="3300" 
        height="2461.600538127972" viewBox="0 0 3300 2461.600538127972">
			<rect fill="#fffbf3" width="3300" height="2461.600538127972"/>
			<g transform="scale(15) translate(10, 10)">
				<defs id="SvgjsDefs2968"></defs><g id="SvgjsG2969" featureKey="rDwwlG-0" transform="matrix(1.0162602663040161,0,0,1.0162602663040161,49.18699186794882,-0.8130081320511815)" fill="#ffa400"><g xmlns="http://www.w3.org/2000/svg"><path d="M50,28.8c-11.7,0-21.2,9.5-21.2,21.2S38.3,71.2,50,71.2S71.2,61.7,71.2,50S61.7,28.8,50,28.8z M50,68.8   c-10.3,0-18.8-8.4-18.8-18.8S39.7,31.2,50,31.2S68.8,39.7,68.8,50S60.3,68.8,50,68.8z"></path><path d="M50,21.2c0.7,0,1.2-0.6,1.2-1.2V2c0-0.7-0.6-1.2-1.2-1.2S48.8,1.3,48.8,2v18C48.8,20.7,49.3,21.2,50,21.2z"></path><path d="M50,78.8c-0.7,0-1.2,0.6-1.2,1.2v18c0,0.7,0.6,1.2,1.2,1.2s1.2-0.6,1.2-1.2V80C51.2,79.3,50.7,78.8,50,78.8z"></path><path d="M21.2,50c0-0.7-0.6-1.2-1.2-1.2H2c-0.7,0-1.2,0.6-1.2,1.2s0.6,1.2,1.2,1.2h18C20.7,51.2,21.2,50.7,21.2,50z"></path><path d="M98,48.8H80c-0.7,0-1.2,0.6-1.2,1.2s0.6,1.2,1.2,1.2h18c0.7,0,1.2-0.6,1.2-1.2S98.7,48.8,98,48.8z"></path><path d="M27.9,29.7c0.2,0.2,0.6,0.4,0.9,0.4s0.6-0.1,0.9-0.4c0.5-0.5,0.5-1.3,0-1.8L9.9,8.1c-0.5-0.5-1.3-0.5-1.8,0s-0.5,1.3,0,1.8   L27.9,29.7z"></path><path d="M72.1,70.3c-0.5-0.5-1.3-0.5-1.8,0s-0.5,1.3,0,1.8l19.8,19.8c0.2,0.2,0.6,0.4,0.9,0.4s0.6-0.1,0.9-0.4   c0.5-0.5,0.5-1.3,0-1.8L72.1,70.3z"></path><path d="M71.2,30c0.3,0,0.6-0.1,0.9-0.4L91.9,9.9c0.5-0.5,0.5-1.3,0-1.8s-1.3-0.5-1.8,0L70.3,27.9c-0.5,0.5-0.5,1.3,0,1.8   C70.6,29.9,70.9,30,71.2,30z"></path><path d="M27.9,70.3L8.1,90.1c-0.5,0.5-0.5,1.3,0,1.8c0.2,0.2,0.6,0.4,0.9,0.4s0.6-0.1,0.9-0.4l19.8-19.8c0.5-0.5,0.5-1.3,0-1.8   S28.4,69.8,27.9,70.3z"></path><path d="M90,33.4c-0.3-0.6-1-0.9-1.6-0.7l-11.1,4.6c-0.6,0.3-0.9,1-0.7,1.6c0.2,0.5,0.7,0.8,1.2,0.8c0.2,0,0.3,0,0.5-0.1L89.4,35   C89.9,34.8,90.2,34.1,90,33.4z"></path><path d="M21.8,60.3l-11.1,4.6c-0.6,0.3-0.9,1-0.7,1.6c0.2,0.5,0.7,0.8,1.2,0.8c0.2,0,0.3,0,0.5-0.1l11.1-4.6c0.6-0.3,0.9-1,0.7-1.6   C23.2,60.4,22.4,60.1,21.8,60.3z"></path><path d="M37.4,22.8c0.2,0.5,0.7,0.8,1.2,0.8c0.2,0,0.3,0,0.5-0.1c0.6-0.3,0.9-1,0.7-1.6l-4.6-11.1c-0.3-0.6-1-0.9-1.6-0.7   c-0.6,0.3-0.9,1-0.7,1.6L37.4,22.8z"></path><path d="M62.6,77.2c-0.3-0.6-1-0.9-1.6-0.7c-0.6,0.3-0.9,1-0.7,1.6l4.6,11.1c0.2,0.5,0.7,0.8,1.2,0.8c0.2,0,0.3,0,0.5-0.1   c0.6-0.3,0.9-1,0.7-1.6L62.6,77.2z"></path><path d="M61,23.4c0.2,0.1,0.3,0.1,0.5,0.1c0.5,0,1-0.3,1.2-0.8l4.6-11.1c0.3-0.6,0-1.4-0.7-1.6c-0.6-0.3-1.4,0-1.6,0.7l-4.6,11.1   C60.1,22.4,60.4,23.2,61,23.4z"></path><path d="M39,76.6c-0.6-0.3-1.4,0-1.6,0.7l-4.6,11.1c-0.3,0.6,0,1.4,0.7,1.6c0.2,0.1,0.3,0.1,0.5,0.1c0.5,0,1-0.3,1.2-0.8l4.6-11.1   C39.9,77.6,39.6,76.8,39,76.6z"></path><path d="M22.8,37.4l-11.1-4.6c-0.6-0.3-1.4,0-1.6,0.7c-0.3,0.6,0,1.4,0.7,1.6l11.1,4.6c0.2,0.1,0.3,0.1,0.5,0.1   c0.5,0,1-0.3,1.2-0.8C23.7,38.4,23.4,37.6,22.8,37.4z"></path><path d="M76.6,61c-0.3,0.6,0,1.4,0.7,1.6l11.1,4.6c0.2,0.1,0.3,0.1,0.5,0.1c0.5,0,1-0.3,1.2-0.8c0.3-0.6,0-1.4-0.7-1.6l-11.1-4.6   C77.6,60.1,76.8,60.4,76.6,61z"></path></g></g><g id="SvgjsG2970" featureKey="4AZ1rv-0" transform="matrix(1.6466326713562012,0,0,1.6466326713562012,0.2305291361403467,110.71299129617107)" fill="#111111"><path d="M4.64 20 l-4.78 -13.22 l3.54 0 l2.28 6.4 c0.18 0.46 0.36 1.26 0.5 2.1 c0.18 -0.82 0.36 -1.64 0.54 -2.1 l1.36 -3.74 l-1.02 -2.66 l3.4 0 l2.32 6.4 c0.16 0.4 0.34 1.1 0.5 1.84 c0.14 -0.74 0.3 -1.42 0.46 -1.84 l2.16 -6.4 l3.26 0 l-4.52 13.22 l-2.68 0 l-2.38 -6.54 c-0.14 0.48 -0.28 0.94 -0.42 1.34 l-1.84 5.2 l-2.68 0 z M28.939999999999998 16.04 l-5.92 0 c0.08 1.34 0.46 1.92 1.76 1.92 c0.8 0 1.28 -0.22 1.42 -0.94 l2.74 0.48 c-0.52 1.74 -1.76 2.78 -4.26 2.78 c-3.12 0 -4.92 -1.62 -4.92 -4.84 c0 -2.6 1.16 -5.06 4.78 -5.06 c2.94 0 4.4 1.62 4.4 4.64 l0 1.02 z M24.42 12.6 c-0.76 0 -1.2 0.36 -1.36 1.54 l2.6 0 l0 -0.02 c0 -1.1 -0.42 -1.52 -1.24 -1.52 z M39.14 20.1 c-2.14 0.34 -2.98 -0.52 -3.24 -1.22 c-0.48 0.68 -1.2 1.4 -2.66 1.4 c-1.7 0 -3.16 -0.96 -3.16 -2.74 c0 -2.16 2.14 -3.14 5.4 -3.16 l0 -0.28 c0 -1.06 -0.26 -1.44 -1.02 -1.44 c-0.72 0 -1.06 0.34 -0.96 1.24 l-3.1 -0.58 c-0.2 -1.62 1.24 -2.94 4.28 -2.94 c2.86 0 3.92 1.18 3.92 3.76 l0 2.2 c0 1.02 0.04 1.54 1.1 1.3 z M35.48 16.88 l0 -0.74 c-1.22 0.02 -2.26 0.24 -2.26 1.16 c0 0.52 0.34 0.76 0.86 0.76 c0.6 0 1.32 -0.32 1.4 -1.18 z M40.339999999999996 13 l0 -2.34 l1.18 0 l0.18 -2.56 l2.9 0 l0 2.56 l2.56 0 l0 2.34 l-2.56 0 l0 3.96 c0 0.46 0.14 0.74 0.54 0.74 c0.5 0 0.6 -0.56 0.64 -1.12 l2.28 0.8 c-0.4 1.58 -1.02 2.82 -3.3 2.82 c-2.48 0 -3.28 -1.58 -3.28 -3.24 l0 -3.96 l-1.14 0 z M54.94 20 l0 -5.34 c0 -1.1 -0.26 -1.64 -0.9 -1.64 c-1.12 0 -1.68 1.44 -1.84 2 l0 4.98 l-3.12 0 l0 -14.36 l3.12 0 l0 6.12 c0.38 -0.6 1.2 -1.38 2.88 -1.38 c1.38 0 2.98 0.56 2.98 3.48 l0 6.14 l-3.12 0 z M68.82 16.04 l-5.92 0 c0.08 1.34 0.46 1.92 1.76 1.92 c0.8 0 1.28 -0.22 1.42 -0.94 l2.74 0.48 c-0.52 1.74 -1.76 2.78 -4.26 2.78 c-3.12 0 -4.92 -1.62 -4.92 -4.84 c0 -2.6 1.16 -5.06 4.78 -5.06 c2.94 0 4.4 1.62 4.4 4.64 l0 1.02 z M64.3 12.6 c-0.76 0 -1.2 0.36 -1.36 1.54 l2.6 0 l0 -0.02 c0 -1.1 -0.42 -1.52 -1.24 -1.52 z M70.46000000000001 20 l0 -9.34 l2.9 0 l0 1.6 c0.44 -1 1.22 -1.88 2.48 -1.88 c1.48 0 1.94 0.98 1.94 0.98 l-1.86 2.68 s-0.24 -0.66 -0.92 -0.66 c-0.72 0 -1.1 0.94 -1.42 1.92 l0 4.7 l-3.12 0 z M82.3 20 l-4.78 -13.22 l3.54 0 l2.28 6.4 c0.18 0.46 0.36 1.26 0.5 2.1 c0.18 -0.82 0.36 -1.64 0.54 -2.1 l1.36 -3.74 l-1.02 -2.66 l3.4 0 l2.32 6.4 c0.16 0.4 0.34 1.1 0.5 1.84 c0.14 -0.74 0.3 -1.42 0.46 -1.84 l2.16 -6.4 l3.26 0 l-4.52 13.22 l-2.68 0 l-2.38 -6.54 c-0.14 0.48 -0.28 0.94 -0.42 1.34 l-1.84 5.2 l-2.68 0 z M97.66 7.4 c0 -0.96 0.8 -1.74 1.76 -1.74 c0.98 0 1.76 0.78 1.76 1.74 s-0.78 1.76 -1.76 1.76 c-0.96 0 -1.76 -0.8 -1.76 -1.76 z M97.86 20 l0 -9.34 l3.12 0 l0 9.34 l-3.12 0 z M102.56 17.5 l2.94 -0.46 c-0.08 0.48 0.28 0.92 1.26 0.92 c0.58 0 1.04 -0.18 1.04 -0.56 c0 -1.2 -5.04 -0.48 -5.04 -4 c0 -1.82 1.34 -3.02 3.98 -3.02 c2.4 0 4.28 0.98 3.96 2.72 l-3.12 0.54 c0.12 -0.44 -0.14 -0.94 -0.88 -0.94 c-0.6 0 -0.78 0.3 -0.78 0.56 c0 1.4 5.08 0.5 5.08 3.96 c0 2.14 -1.92 3.06 -4.36 3.06 c-2.32 0 -4.28 -0.88 -4.08 -2.78 z M121.32 16.04 l-5.92 0 c0.08 1.34 0.46 1.92 1.76 1.92 c0.8 0 1.28 -0.22 1.42 -0.94 l2.74 0.48 c-0.52 1.74 -1.76 2.78 -4.26 2.78 c-3.12 0 -4.92 -1.62 -4.92 -4.84 c0 -2.6 1.16 -5.06 4.78 -5.06 c2.94 0 4.4 1.62 4.4 4.64 l0 1.02 z M116.8 12.6 c-0.76 0 -1.2 0.36 -1.36 1.54 l2.6 0 l0 -0.02 c0 -1.1 -0.42 -1.52 -1.24 -1.52 z"></path></g>
			</g>
		</svg>
	